<mxfile host="app.diagrams.net" modified="2022-05-21T13:51:47.041Z" agent="5.0 (Macintosh; Intel Mac OS X 10_15_7) AppleWebKit/537.36 (KHTML, like Gecko) Chrome/101.0.4951.64 Safari/537.36" etag="h42nXo-sh_UXrvskMV2U" version="18.0.5" type="github">
  <diagram id="3228e29e-7158-1315-38df-8450db1d8a1d" name="Page-1">
    <mxGraphModel dx="865" dy="-296" grid="0" gridSize="10" guides="1" tooltips="1" connect="1" arrows="1" fold="1" page="1" pageScale="1" pageWidth="400" pageHeight="400" background="#EFF1F3" math="0" shadow="0">
      <root>
        <mxCell id="0" />
        <mxCell id="1" parent="0" />
        <mxCell id="yyw1uqhGUR_v7xHCsKaX-17" value="&lt;font color=&quot;#ffffff&quot;&gt;&lt;span style=&quot;font-size: 16px&quot;&gt;&lt;br&gt;&lt;/span&gt;&lt;/font&gt;" style="whiteSpace=wrap;html=1;aspect=fixed;rounded=1;strokeColor=none;fillColor=#4A919B;" parent="1" vertex="1">
          <mxGeometry x="275.5" y="832" width="80" height="80" as="geometry" />
        </mxCell>
        <mxCell id="yyw1uqhGUR_v7xHCsKaX-18" value="数据" style="rounded=1;whiteSpace=wrap;html=1;fillColor=#9AC7BF;strokeColor=default;fontColor=#000000;align=center;" parent="1" vertex="1">
          <mxGeometry x="298.5" y="854" width="50" height="17" as="geometry" />
        </mxCell>
        <mxCell id="yyw1uqhGUR_v7xHCsKaX-19" value="&lt;font color=&quot;#ffffff&quot;&gt;user0&lt;/font&gt;" style="text;html=1;strokeColor=none;fillColor=none;align=center;verticalAlign=middle;whiteSpace=wrap;rounded=0;dashed=1;fontColor=#535E80;" parent="1" vertex="1">
          <mxGeometry x="287.5" y="832" width="55" height="22" as="geometry" />
        </mxCell>
        <mxCell id="yyw1uqhGUR_v7xHCsKaX-20" value="&lt;font&gt;1&lt;/font&gt;" style="rounded=1;whiteSpace=wrap;html=1;fillColor=#9AC7BF;strokeColor=default;fontColor=#000000;" parent="1" vertex="1">
          <mxGeometry x="282.75" y="854" width="15.75" height="17" as="geometry" />
        </mxCell>
        <mxCell id="yyw1uqhGUR_v7xHCsKaX-21" value="数据" style="rounded=1;whiteSpace=wrap;html=1;fillColor=#9AC7BF;strokeColor=default;fontColor=#000000;align=center;" parent="1" vertex="1">
          <mxGeometry x="298.5" y="871" width="50" height="17" as="geometry" />
        </mxCell>
        <mxCell id="yyw1uqhGUR_v7xHCsKaX-22" value="&lt;font&gt;2&lt;/font&gt;" style="rounded=1;whiteSpace=wrap;html=1;fillColor=#9AC7BF;strokeColor=default;fontColor=#000000;" parent="1" vertex="1">
          <mxGeometry x="282.75" y="871" width="15.75" height="17" as="geometry" />
        </mxCell>
        <mxCell id="yyw1uqhGUR_v7xHCsKaX-23" value="数据" style="rounded=1;whiteSpace=wrap;html=1;fillColor=#9AC7BF;strokeColor=default;fontColor=#000000;align=center;" parent="1" vertex="1">
          <mxGeometry x="298.5" y="888" width="50" height="17" as="geometry" />
        </mxCell>
        <mxCell id="yyw1uqhGUR_v7xHCsKaX-24" value="&lt;font&gt;3&lt;/font&gt;" style="rounded=1;whiteSpace=wrap;html=1;fillColor=#9AC7BF;strokeColor=default;fontColor=#000000;" parent="1" vertex="1">
          <mxGeometry x="282.75" y="888" width="15.75" height="17" as="geometry" />
        </mxCell>
        <mxCell id="yyw1uqhGUR_v7xHCsKaX-25" value="&lt;font color=&quot;#ffffff&quot;&gt;&lt;span style=&quot;font-size: 16px&quot;&gt;&lt;br&gt;&lt;/span&gt;&lt;/font&gt;" style="whiteSpace=wrap;html=1;aspect=fixed;rounded=1;strokeColor=none;fillColor=#4A919B;" parent="1" vertex="1">
          <mxGeometry x="275.5" y="917" width="80" height="80" as="geometry" />
        </mxCell>
        <mxCell id="yyw1uqhGUR_v7xHCsKaX-26" value="数据" style="rounded=1;whiteSpace=wrap;html=1;fillColor=#9AC7BF;strokeColor=default;fontColor=#000000;align=center;" parent="1" vertex="1">
          <mxGeometry x="298.5" y="939" width="50" height="17" as="geometry" />
        </mxCell>
        <mxCell id="yyw1uqhGUR_v7xHCsKaX-27" value="&lt;font color=&quot;#ffffff&quot;&gt;user1&lt;/font&gt;" style="text;html=1;strokeColor=none;fillColor=none;align=center;verticalAlign=middle;whiteSpace=wrap;rounded=0;dashed=1;fontColor=#535E80;" parent="1" vertex="1">
          <mxGeometry x="287.5" y="917" width="55" height="22" as="geometry" />
        </mxCell>
        <mxCell id="yyw1uqhGUR_v7xHCsKaX-28" value="&lt;font&gt;4&lt;/font&gt;" style="rounded=1;whiteSpace=wrap;html=1;fillColor=#9AC7BF;strokeColor=default;fontColor=#000000;" parent="1" vertex="1">
          <mxGeometry x="282.75" y="939" width="15.75" height="17" as="geometry" />
        </mxCell>
        <mxCell id="yyw1uqhGUR_v7xHCsKaX-29" value="数据" style="rounded=1;whiteSpace=wrap;html=1;fillColor=#9AC7BF;strokeColor=default;fontColor=#000000;align=center;" parent="1" vertex="1">
          <mxGeometry x="298.5" y="956" width="50" height="17" as="geometry" />
        </mxCell>
        <mxCell id="yyw1uqhGUR_v7xHCsKaX-30" value="&lt;font&gt;5&lt;/font&gt;" style="rounded=1;whiteSpace=wrap;html=1;fillColor=#9AC7BF;strokeColor=default;fontColor=#000000;" parent="1" vertex="1">
          <mxGeometry x="282.75" y="956" width="15.75" height="17" as="geometry" />
        </mxCell>
        <mxCell id="yyw1uqhGUR_v7xHCsKaX-31" value="数据" style="rounded=1;whiteSpace=wrap;html=1;fillColor=#9AC7BF;strokeColor=default;fontColor=#000000;align=center;" parent="1" vertex="1">
          <mxGeometry x="298.5" y="973" width="50" height="17" as="geometry" />
        </mxCell>
        <mxCell id="yyw1uqhGUR_v7xHCsKaX-32" value="&lt;font&gt;6&lt;/font&gt;" style="rounded=1;whiteSpace=wrap;html=1;fillColor=#9AC7BF;strokeColor=default;fontColor=#000000;" parent="1" vertex="1">
          <mxGeometry x="282.75" y="973" width="15.75" height="17" as="geometry" />
        </mxCell>
        <mxCell id="yyw1uqhGUR_v7xHCsKaX-33" value="&lt;font color=&quot;#ffffff&quot;&gt;&lt;span style=&quot;font-size: 16px&quot;&gt;&lt;br&gt;&lt;/span&gt;&lt;/font&gt;" style="whiteSpace=wrap;html=1;aspect=fixed;rounded=1;strokeColor=none;fillColor=#4A919B;" parent="1" vertex="1">
          <mxGeometry x="275" y="1002" width="80" height="80" as="geometry" />
        </mxCell>
        <mxCell id="yyw1uqhGUR_v7xHCsKaX-34" value="数据" style="rounded=1;whiteSpace=wrap;html=1;fillColor=#9AC7BF;strokeColor=default;fontColor=#000000;align=center;" parent="1" vertex="1">
          <mxGeometry x="298" y="1024" width="50" height="17" as="geometry" />
        </mxCell>
        <mxCell id="yyw1uqhGUR_v7xHCsKaX-35" value="&lt;font color=&quot;#ffffff&quot;&gt;user2&lt;/font&gt;" style="text;html=1;strokeColor=none;fillColor=none;align=center;verticalAlign=middle;whiteSpace=wrap;rounded=0;dashed=1;fontColor=#535E80;" parent="1" vertex="1">
          <mxGeometry x="287" y="1002" width="55" height="22" as="geometry" />
        </mxCell>
        <mxCell id="yyw1uqhGUR_v7xHCsKaX-36" value="&lt;font&gt;7&lt;/font&gt;" style="rounded=1;whiteSpace=wrap;html=1;fillColor=#9AC7BF;strokeColor=default;fontColor=#000000;" parent="1" vertex="1">
          <mxGeometry x="282.25" y="1024" width="15.75" height="17" as="geometry" />
        </mxCell>
        <mxCell id="yyw1uqhGUR_v7xHCsKaX-37" value="数据" style="rounded=1;whiteSpace=wrap;html=1;fillColor=#9AC7BF;strokeColor=default;fontColor=#000000;align=center;" parent="1" vertex="1">
          <mxGeometry x="298" y="1041" width="50" height="17" as="geometry" />
        </mxCell>
        <mxCell id="yyw1uqhGUR_v7xHCsKaX-38" value="&lt;font&gt;8&lt;/font&gt;" style="rounded=1;whiteSpace=wrap;html=1;fillColor=#9AC7BF;strokeColor=default;fontColor=#000000;" parent="1" vertex="1">
          <mxGeometry x="282.25" y="1041" width="15.75" height="17" as="geometry" />
        </mxCell>
        <mxCell id="yyw1uqhGUR_v7xHCsKaX-39" value="数据" style="rounded=1;whiteSpace=wrap;html=1;fillColor=#9AC7BF;strokeColor=default;fontColor=#000000;align=center;" parent="1" vertex="1">
          <mxGeometry x="298" y="1058" width="50" height="17" as="geometry" />
        </mxCell>
        <mxCell id="yyw1uqhGUR_v7xHCsKaX-40" value="&lt;font&gt;9&lt;/font&gt;" style="rounded=1;whiteSpace=wrap;html=1;fillColor=#9AC7BF;strokeColor=default;fontColor=#000000;" parent="1" vertex="1">
          <mxGeometry x="282.25" y="1058" width="15.75" height="17" as="geometry" />
        </mxCell>
        <mxCell id="yyw1uqhGUR_v7xHCsKaX-41" value="&lt;font color=&quot;#ffffff&quot;&gt;&lt;span style=&quot;font-size: 16px&quot;&gt;&lt;br&gt;&lt;/span&gt;&lt;/font&gt;" style="whiteSpace=wrap;html=1;aspect=fixed;rounded=1;strokeColor=none;fillColor=#4A919B;" parent="1" vertex="1">
          <mxGeometry x="275.5" y="1087" width="80" height="80" as="geometry" />
        </mxCell>
        <mxCell id="yyw1uqhGUR_v7xHCsKaX-42" value="数据" style="rounded=1;whiteSpace=wrap;html=1;fillColor=#9AC7BF;strokeColor=default;fontColor=#000000;align=center;" parent="1" vertex="1">
          <mxGeometry x="298.5" y="1109" width="50" height="17" as="geometry" />
        </mxCell>
        <mxCell id="yyw1uqhGUR_v7xHCsKaX-43" value="&lt;font color=&quot;#ffffff&quot;&gt;user3&lt;/font&gt;" style="text;html=1;strokeColor=none;fillColor=none;align=center;verticalAlign=middle;whiteSpace=wrap;rounded=0;dashed=1;fontColor=#535E80;" parent="1" vertex="1">
          <mxGeometry x="287.5" y="1087" width="55" height="22" as="geometry" />
        </mxCell>
        <mxCell id="yyw1uqhGUR_v7xHCsKaX-44" value="&lt;font&gt;10&lt;/font&gt;" style="rounded=1;whiteSpace=wrap;html=1;fillColor=#9AC7BF;strokeColor=default;fontColor=#000000;" parent="1" vertex="1">
          <mxGeometry x="282.75" y="1109" width="15.75" height="17" as="geometry" />
        </mxCell>
        <mxCell id="yyw1uqhGUR_v7xHCsKaX-45" value="数据" style="rounded=1;whiteSpace=wrap;html=1;fillColor=#9AC7BF;strokeColor=default;fontColor=#000000;align=center;" parent="1" vertex="1">
          <mxGeometry x="298.5" y="1126" width="50" height="17" as="geometry" />
        </mxCell>
        <mxCell id="yyw1uqhGUR_v7xHCsKaX-46" value="&lt;font&gt;11&lt;/font&gt;" style="rounded=1;whiteSpace=wrap;html=1;fillColor=#9AC7BF;strokeColor=default;fontColor=#000000;" parent="1" vertex="1">
          <mxGeometry x="282.75" y="1126" width="15.75" height="17" as="geometry" />
        </mxCell>
        <mxCell id="yyw1uqhGUR_v7xHCsKaX-47" value="数据" style="rounded=1;whiteSpace=wrap;html=1;fillColor=#9AC7BF;strokeColor=default;fontColor=#000000;align=center;" parent="1" vertex="1">
          <mxGeometry x="298.5" y="1143" width="50" height="17" as="geometry" />
        </mxCell>
        <mxCell id="yyw1uqhGUR_v7xHCsKaX-48" value="&lt;font&gt;12&lt;/font&gt;" style="rounded=1;whiteSpace=wrap;html=1;fillColor=#9AC7BF;strokeColor=default;fontColor=#000000;" parent="1" vertex="1">
          <mxGeometry x="282.75" y="1143" width="15.75" height="17" as="geometry" />
        </mxCell>
        <mxCell id="GSjFHF2CIG4gb6S8epUb-2" value="" style="rounded=1;whiteSpace=wrap;html=1;fillColor=#4A919B;strokeColor=none;" vertex="1" parent="1">
          <mxGeometry x="44" y="832" width="84" height="337" as="geometry" />
        </mxCell>
        <mxCell id="GSjFHF2CIG4gb6S8epUb-3" value="数据" style="rounded=1;whiteSpace=wrap;html=1;fillColor=#9AC7BF;strokeColor=default;fontColor=#000000;align=center;" vertex="1" parent="1">
          <mxGeometry x="67.88" y="854" width="50" height="17" as="geometry" />
        </mxCell>
        <mxCell id="GSjFHF2CIG4gb6S8epUb-4" value="&lt;font&gt;1&lt;/font&gt;" style="rounded=1;whiteSpace=wrap;html=1;fillColor=#9AC7BF;strokeColor=default;fontColor=#000000;" vertex="1" parent="1">
          <mxGeometry x="52.129999999999995" y="854" width="15.75" height="17" as="geometry" />
        </mxCell>
        <mxCell id="GSjFHF2CIG4gb6S8epUb-5" value="数据" style="rounded=1;whiteSpace=wrap;html=1;fillColor=#9AC7BF;strokeColor=default;fontColor=#000000;align=center;" vertex="1" parent="1">
          <mxGeometry x="67.88" y="871" width="50" height="17" as="geometry" />
        </mxCell>
        <mxCell id="GSjFHF2CIG4gb6S8epUb-6" value="&lt;font&gt;2&lt;/font&gt;" style="rounded=1;whiteSpace=wrap;html=1;fillColor=#9AC7BF;strokeColor=default;fontColor=#000000;" vertex="1" parent="1">
          <mxGeometry x="52.129999999999995" y="871" width="15.75" height="17" as="geometry" />
        </mxCell>
        <mxCell id="GSjFHF2CIG4gb6S8epUb-7" value="数据" style="rounded=1;whiteSpace=wrap;html=1;fillColor=#9AC7BF;strokeColor=default;fontColor=#000000;align=center;" vertex="1" parent="1">
          <mxGeometry x="67.88" y="888" width="50" height="17" as="geometry" />
        </mxCell>
        <mxCell id="GSjFHF2CIG4gb6S8epUb-8" value="&lt;font&gt;3&lt;/font&gt;" style="rounded=1;whiteSpace=wrap;html=1;fillColor=#9AC7BF;strokeColor=default;fontColor=#000000;" vertex="1" parent="1">
          <mxGeometry x="52.129999999999995" y="888" width="15.75" height="17" as="geometry" />
        </mxCell>
        <mxCell id="GSjFHF2CIG4gb6S8epUb-9" value="数据" style="rounded=1;whiteSpace=wrap;html=1;fillColor=#9AC7BF;strokeColor=default;fontColor=#000000;align=center;" vertex="1" parent="1">
          <mxGeometry x="67.88" y="939" width="50" height="17" as="geometry" />
        </mxCell>
        <mxCell id="GSjFHF2CIG4gb6S8epUb-10" value="&lt;font&gt;4&lt;/font&gt;" style="rounded=1;whiteSpace=wrap;html=1;fillColor=#9AC7BF;strokeColor=default;fontColor=#000000;" vertex="1" parent="1">
          <mxGeometry x="52.129999999999995" y="939" width="15.75" height="17" as="geometry" />
        </mxCell>
        <mxCell id="GSjFHF2CIG4gb6S8epUb-11" value="数据" style="rounded=1;whiteSpace=wrap;html=1;fillColor=#9AC7BF;strokeColor=default;fontColor=#000000;align=center;" vertex="1" parent="1">
          <mxGeometry x="67.88" y="956" width="50" height="17" as="geometry" />
        </mxCell>
        <mxCell id="GSjFHF2CIG4gb6S8epUb-12" value="&lt;font&gt;5&lt;/font&gt;" style="rounded=1;whiteSpace=wrap;html=1;fillColor=#9AC7BF;strokeColor=default;fontColor=#000000;" vertex="1" parent="1">
          <mxGeometry x="52.129999999999995" y="956" width="15.75" height="17" as="geometry" />
        </mxCell>
        <mxCell id="GSjFHF2CIG4gb6S8epUb-13" value="数据" style="rounded=1;whiteSpace=wrap;html=1;fillColor=#9AC7BF;strokeColor=default;fontColor=#000000;align=center;" vertex="1" parent="1">
          <mxGeometry x="67.88" y="973" width="50" height="17" as="geometry" />
        </mxCell>
        <mxCell id="GSjFHF2CIG4gb6S8epUb-14" value="&lt;font&gt;6&lt;/font&gt;" style="rounded=1;whiteSpace=wrap;html=1;fillColor=#9AC7BF;strokeColor=default;fontColor=#000000;" vertex="1" parent="1">
          <mxGeometry x="52.129999999999995" y="973" width="15.75" height="17" as="geometry" />
        </mxCell>
        <mxCell id="GSjFHF2CIG4gb6S8epUb-15" value="数据" style="rounded=1;whiteSpace=wrap;html=1;fillColor=#9AC7BF;strokeColor=default;fontColor=#000000;align=center;" vertex="1" parent="1">
          <mxGeometry x="67.88" y="1024" width="50" height="17" as="geometry" />
        </mxCell>
        <mxCell id="GSjFHF2CIG4gb6S8epUb-16" value="&lt;font&gt;7&lt;/font&gt;" style="rounded=1;whiteSpace=wrap;html=1;fillColor=#9AC7BF;strokeColor=default;fontColor=#000000;" vertex="1" parent="1">
          <mxGeometry x="52.129999999999995" y="1024" width="15.75" height="17" as="geometry" />
        </mxCell>
        <mxCell id="GSjFHF2CIG4gb6S8epUb-17" value="数据" style="rounded=1;whiteSpace=wrap;html=1;fillColor=#9AC7BF;strokeColor=default;fontColor=#000000;align=center;" vertex="1" parent="1">
          <mxGeometry x="67.88" y="1041" width="50" height="17" as="geometry" />
        </mxCell>
        <mxCell id="GSjFHF2CIG4gb6S8epUb-18" value="&lt;font&gt;8&lt;/font&gt;" style="rounded=1;whiteSpace=wrap;html=1;fillColor=#9AC7BF;strokeColor=default;fontColor=#000000;" vertex="1" parent="1">
          <mxGeometry x="52.129999999999995" y="1041" width="15.75" height="17" as="geometry" />
        </mxCell>
        <mxCell id="GSjFHF2CIG4gb6S8epUb-19" value="数据" style="rounded=1;whiteSpace=wrap;html=1;fillColor=#9AC7BF;strokeColor=default;fontColor=#000000;align=center;" vertex="1" parent="1">
          <mxGeometry x="67.88" y="1058" width="50" height="17" as="geometry" />
        </mxCell>
        <mxCell id="GSjFHF2CIG4gb6S8epUb-20" value="&lt;font&gt;9&lt;/font&gt;" style="rounded=1;whiteSpace=wrap;html=1;fillColor=#9AC7BF;strokeColor=default;fontColor=#000000;" vertex="1" parent="1">
          <mxGeometry x="52.129999999999995" y="1058" width="15.75" height="17" as="geometry" />
        </mxCell>
        <mxCell id="GSjFHF2CIG4gb6S8epUb-21" value="数据" style="rounded=1;whiteSpace=wrap;html=1;fillColor=#9AC7BF;strokeColor=default;fontColor=#000000;align=center;" vertex="1" parent="1">
          <mxGeometry x="67.88" y="1109" width="50" height="17" as="geometry" />
        </mxCell>
        <mxCell id="GSjFHF2CIG4gb6S8epUb-22" value="&lt;font&gt;10&lt;/font&gt;" style="rounded=1;whiteSpace=wrap;html=1;fillColor=#9AC7BF;strokeColor=default;fontColor=#000000;" vertex="1" parent="1">
          <mxGeometry x="52.129999999999995" y="1109" width="15.75" height="17" as="geometry" />
        </mxCell>
        <mxCell id="GSjFHF2CIG4gb6S8epUb-23" value="数据" style="rounded=1;whiteSpace=wrap;html=1;fillColor=#9AC7BF;strokeColor=default;fontColor=#000000;align=center;" vertex="1" parent="1">
          <mxGeometry x="67.88" y="1126" width="50" height="17" as="geometry" />
        </mxCell>
        <mxCell id="GSjFHF2CIG4gb6S8epUb-24" value="&lt;font&gt;11&lt;/font&gt;" style="rounded=1;whiteSpace=wrap;html=1;fillColor=#9AC7BF;strokeColor=default;fontColor=#000000;" vertex="1" parent="1">
          <mxGeometry x="52.129999999999995" y="1126" width="15.75" height="17" as="geometry" />
        </mxCell>
        <mxCell id="GSjFHF2CIG4gb6S8epUb-25" value="数据" style="rounded=1;whiteSpace=wrap;html=1;fillColor=#9AC7BF;strokeColor=default;fontColor=#000000;align=center;" vertex="1" parent="1">
          <mxGeometry x="67.88" y="1143" width="50" height="17" as="geometry" />
        </mxCell>
        <mxCell id="GSjFHF2CIG4gb6S8epUb-26" value="&lt;font&gt;12&lt;/font&gt;" style="rounded=1;whiteSpace=wrap;html=1;fillColor=#9AC7BF;strokeColor=default;fontColor=#000000;" vertex="1" parent="1">
          <mxGeometry x="52.129999999999995" y="1143" width="15.75" height="17" as="geometry" />
        </mxCell>
        <mxCell id="GSjFHF2CIG4gb6S8epUb-27" value="&lt;font color=&quot;#ffffff&quot;&gt;user&lt;/font&gt;" style="text;html=1;strokeColor=none;fillColor=none;align=center;verticalAlign=middle;whiteSpace=wrap;rounded=0;dashed=1;fontColor=#535E80;" vertex="1" parent="1">
          <mxGeometry x="57.5" y="832" width="55" height="22" as="geometry" />
        </mxCell>
        <mxCell id="GSjFHF2CIG4gb6S8epUb-29" value="" style="endArrow=none;dashed=1;html=1;rounded=0;strokeWidth=3;strokeColor=#535E80;" edge="1" parent="1">
          <mxGeometry width="50" height="50" relative="1" as="geometry">
            <mxPoint x="47" y="999" as="sourcePoint" />
            <mxPoint x="354" y="999" as="targetPoint" />
          </mxGeometry>
        </mxCell>
        <mxCell id="GSjFHF2CIG4gb6S8epUb-30" value="" style="endArrow=none;dashed=1;html=1;rounded=0;strokeWidth=3;strokeColor=#535E80;" edge="1" parent="1">
          <mxGeometry width="50" height="50" relative="1" as="geometry">
            <mxPoint x="47.129999999999995" y="914.33" as="sourcePoint" />
            <mxPoint x="354.13" y="914.33" as="targetPoint" />
          </mxGeometry>
        </mxCell>
        <mxCell id="GSjFHF2CIG4gb6S8epUb-31" value="" style="endArrow=none;dashed=1;html=1;rounded=0;strokeWidth=3;strokeColor=#535E80;" edge="1" parent="1">
          <mxGeometry width="50" height="50" relative="1" as="geometry">
            <mxPoint x="48.500000000000114" y="1084.33" as="sourcePoint" />
            <mxPoint x="355.5000000000001" y="1084.33" as="targetPoint" />
          </mxGeometry>
        </mxCell>
        <mxCell id="GSjFHF2CIG4gb6S8epUb-32" value="&lt;font style=&quot;font-size: 17px;&quot; color=&quot;#535e80&quot;&gt;&lt;b&gt;水平分表&lt;/b&gt;&lt;/font&gt;" style="text;html=1;strokeColor=none;fillColor=none;align=center;verticalAlign=middle;whiteSpace=wrap;rounded=0;" vertex="1" parent="1">
          <mxGeometry x="164" y="951" width="73" height="32" as="geometry" />
        </mxCell>
      </root>
    </mxGraphModel>
  </diagram>
</mxfile>
